<mxfile host="app.diagrams.net" agent="Mozilla/5.0 (Windows NT 10.0; Win64; x64; rv:144.0) Gecko/20100101 Firefox/144.0" version="28.2.7">
  <diagram name="Page-1" id="EYg3MqegUCzYYS_CXkTB">
    <mxGraphModel dx="1064" dy="605" grid="1" gridSize="10" guides="1" tooltips="1" connect="1" arrows="1" fold="1" page="1" pageScale="1" pageWidth="827" pageHeight="1169" math="0" shadow="0">
      <root>
        <mxCell id="0" />
        <mxCell id="1" parent="0" />
        <mxCell id="wHHLx8FjQf187PXlfKUF-317" value="&lt;p style=&quot;margin:0px;margin-top:6px;text-align:center;&quot;&gt;&lt;b&gt;browser&lt;/b&gt;&lt;/p&gt;&lt;hr size=&quot;1&quot; style=&quot;border-style:solid;&quot;&gt;&lt;p style=&quot;margin:0px;margin-left:8px;&quot;&gt;&lt;br&gt;&lt;/p&gt;" style="align=left;overflow=fill;html=1;dropTarget=0;whiteSpace=wrap;strokeColor=#0F8B8D;fontColor=#143642;fillColor=#FAE5C7;labelBackgroundColor=none;" parent="1" vertex="1">
          <mxGeometry x="50" y="440" width="150" height="110" as="geometry" />
        </mxCell>
        <mxCell id="wHHLx8FjQf187PXlfKUF-318" value="" style="shape=component;jettyWidth=8;jettyHeight=4;strokeColor=#0F8B8D;fontColor=#143642;fillColor=#FAE5C7;labelBackgroundColor=none;" parent="wHHLx8FjQf187PXlfKUF-317" vertex="1">
          <mxGeometry x="1" width="20" height="20" relative="1" as="geometry">
            <mxPoint x="-24" y="4" as="offset" />
          </mxGeometry>
        </mxCell>
        <mxCell id="wHHLx8FjQf187PXlfKUF-319" value="&lt;p style=&quot;margin:0px;margin-top:6px;text-align:center;&quot;&gt;&lt;b&gt;Mobile App&lt;/b&gt;&lt;/p&gt;&lt;hr size=&quot;1&quot; style=&quot;border-style:solid;&quot;&gt;&lt;p style=&quot;margin:0px;margin-left:8px;&quot;&gt;&lt;br&gt;&lt;/p&gt;" style="align=left;overflow=fill;html=1;dropTarget=0;whiteSpace=wrap;strokeColor=#0F8B8D;fontColor=#143642;fillColor=#FAE5C7;labelBackgroundColor=none;" parent="1" vertex="1">
          <mxGeometry x="50" y="610" width="150" height="110" as="geometry" />
        </mxCell>
        <mxCell id="wHHLx8FjQf187PXlfKUF-320" value="" style="shape=component;jettyWidth=8;jettyHeight=4;strokeColor=#0F8B8D;fontColor=#143642;fillColor=#FAE5C7;labelBackgroundColor=none;" parent="wHHLx8FjQf187PXlfKUF-319" vertex="1">
          <mxGeometry x="1" width="20" height="20" relative="1" as="geometry">
            <mxPoint x="-24" y="4" as="offset" />
          </mxGeometry>
        </mxCell>
        <mxCell id="wHHLx8FjQf187PXlfKUF-321" value="client JS" style="shape=module;align=left;spacingLeft=20;align=center;verticalAlign=top;whiteSpace=wrap;html=1;strokeColor=#0F8B8D;fontColor=#143642;fillColor=#FAE5C7;labelBackgroundColor=none;" parent="1" vertex="1">
          <mxGeometry x="75" y="480" width="100" height="50" as="geometry" />
        </mxCell>
        <mxCell id="kcvAr1OlvpWyKCQqvLKW-1" value="JSON" style="text;html=1;whiteSpace=wrap;strokeColor=none;fillColor=none;align=center;verticalAlign=middle;rounded=0;labelBackgroundColor=none;fontColor=#143642;" vertex="1" parent="1">
          <mxGeometry x="190" y="580" width="60" height="30" as="geometry" />
        </mxCell>
        <mxCell id="kcvAr1OlvpWyKCQqvLKW-5" value="HTML" style="text;html=1;whiteSpace=wrap;strokeColor=none;fillColor=none;align=center;verticalAlign=middle;rounded=0;labelBackgroundColor=none;fontColor=#143642;" vertex="1" parent="1">
          <mxGeometry x="180" y="440" width="60" height="30" as="geometry" />
        </mxCell>
        <mxCell id="kcvAr1OlvpWyKCQqvLKW-10" value="&lt;p style=&quot;margin:0px;margin-top:6px;text-align:center;&quot;&gt;&lt;b&gt;browser&lt;/b&gt;&lt;/p&gt;&lt;hr size=&quot;1&quot; style=&quot;border-style:solid;&quot;&gt;&lt;p style=&quot;margin:0px;margin-left:8px;&quot;&gt;&lt;br&gt;&lt;/p&gt;" style="align=left;overflow=fill;html=1;dropTarget=0;whiteSpace=wrap;strokeColor=#0F8B8D;fontColor=#143642;fillColor=#FAE5C7;labelBackgroundColor=none;" vertex="1" parent="1">
          <mxGeometry x="40" y="270" width="150" height="110" as="geometry" />
        </mxCell>
        <mxCell id="kcvAr1OlvpWyKCQqvLKW-11" value="" style="shape=component;jettyWidth=8;jettyHeight=4;strokeColor=#0F8B8D;fontColor=#143642;fillColor=#FAE5C7;labelBackgroundColor=none;" vertex="1" parent="kcvAr1OlvpWyKCQqvLKW-10">
          <mxGeometry x="1" width="20" height="20" relative="1" as="geometry">
            <mxPoint x="-24" y="4" as="offset" />
          </mxGeometry>
        </mxCell>
        <mxCell id="kcvAr1OlvpWyKCQqvLKW-12" value="angular JS" style="shape=module;align=left;spacingLeft=20;align=center;verticalAlign=top;whiteSpace=wrap;html=1;strokeColor=#0F8B8D;fontColor=#143642;fillColor=#FAE5C7;labelBackgroundColor=none;" vertex="1" parent="1">
          <mxGeometry x="65" y="310" width="100" height="50" as="geometry" />
        </mxCell>
        <mxCell id="kcvAr1OlvpWyKCQqvLKW-17" value="JSON" style="text;html=1;whiteSpace=wrap;strokeColor=none;fillColor=none;align=center;verticalAlign=middle;rounded=0;labelBackgroundColor=none;fontColor=#143642;" vertex="1" parent="1">
          <mxGeometry x="200" y="270" width="60" height="30" as="geometry" />
        </mxCell>
        <mxCell id="kcvAr1OlvpWyKCQqvLKW-21" value="backend" style="shape=umlFrame;whiteSpace=wrap;html=1;pointerEvents=0;recursiveResize=0;container=1;collapsible=0;width=160;strokeColor=#0F8B8D;fontColor=#143642;fillColor=#FAE5C7;" vertex="1" parent="1">
          <mxGeometry x="690" y="230" width="540" height="670" as="geometry" />
        </mxCell>
        <mxCell id="wHHLx8FjQf187PXlfKUF-324" value="&lt;p style=&quot;margin:0px;margin-top:6px;text-align:center;&quot;&gt;&lt;b&gt;AssurAuto&lt;/b&gt;&lt;/p&gt;&lt;hr size=&quot;1&quot; style=&quot;border-style:solid;&quot;&gt;&lt;p style=&quot;margin:0px;margin-left:8px;&quot;&gt;&lt;br&gt;&lt;/p&gt;" style="align=left;overflow=fill;html=1;dropTarget=0;whiteSpace=wrap;strokeColor=#0F8B8D;fontColor=#143642;fillColor=#FAE5C7;labelBackgroundColor=none;" parent="kcvAr1OlvpWyKCQqvLKW-21" vertex="1">
          <mxGeometry x="365" y="220" width="150" height="110" as="geometry" />
        </mxCell>
        <mxCell id="wHHLx8FjQf187PXlfKUF-325" value="" style="shape=component;jettyWidth=8;jettyHeight=4;strokeColor=#0F8B8D;fontColor=#143642;fillColor=#FAE5C7;labelBackgroundColor=none;" parent="wHHLx8FjQf187PXlfKUF-324" vertex="1">
          <mxGeometry x="1" width="20" height="20" relative="1" as="geometry">
            <mxPoint x="-24" y="4" as="offset" />
          </mxGeometry>
        </mxCell>
        <mxCell id="wHHLx8FjQf187PXlfKUF-326" value="&lt;p style=&quot;margin:0px;margin-top:6px;text-align:center;&quot;&gt;&lt;b&gt;AssurHabitation&lt;/b&gt;&lt;/p&gt;&lt;hr size=&quot;1&quot; style=&quot;border-style:solid;&quot;&gt;&lt;p style=&quot;margin:0px;margin-left:8px;&quot;&gt;&lt;br&gt;&lt;/p&gt;" style="align=left;overflow=fill;html=1;dropTarget=0;whiteSpace=wrap;strokeColor=#0F8B8D;fontColor=#143642;fillColor=#FAE5C7;labelBackgroundColor=none;" parent="kcvAr1OlvpWyKCQqvLKW-21" vertex="1">
          <mxGeometry x="365" y="370" width="150" height="110" as="geometry" />
        </mxCell>
        <mxCell id="wHHLx8FjQf187PXlfKUF-327" value="" style="shape=component;jettyWidth=8;jettyHeight=4;strokeColor=#0F8B8D;fontColor=#143642;fillColor=#FAE5C7;labelBackgroundColor=none;" parent="wHHLx8FjQf187PXlfKUF-326" vertex="1">
          <mxGeometry x="1" width="20" height="20" relative="1" as="geometry">
            <mxPoint x="-24" y="4" as="offset" />
          </mxGeometry>
        </mxCell>
        <mxCell id="wHHLx8FjQf187PXlfKUF-328" value="&lt;p style=&quot;margin:0px;margin-top:6px;text-align:center;&quot;&gt;&lt;b&gt;AssurEmprunteur&lt;/b&gt;&lt;/p&gt;&lt;hr size=&quot;1&quot; style=&quot;border-style:solid;&quot;&gt;&lt;p style=&quot;margin:0px;margin-left:8px;&quot;&gt;&lt;br&gt;&lt;/p&gt;" style="align=left;overflow=fill;html=1;dropTarget=0;whiteSpace=wrap;strokeColor=#0F8B8D;fontColor=#143642;fillColor=#FAE5C7;labelBackgroundColor=none;" parent="kcvAr1OlvpWyKCQqvLKW-21" vertex="1">
          <mxGeometry x="365" y="520" width="150" height="110" as="geometry" />
        </mxCell>
        <mxCell id="wHHLx8FjQf187PXlfKUF-329" value="" style="shape=component;jettyWidth=8;jettyHeight=4;strokeColor=#0F8B8D;fontColor=#143642;fillColor=#FAE5C7;labelBackgroundColor=none;" parent="wHHLx8FjQf187PXlfKUF-328" vertex="1">
          <mxGeometry x="1" width="20" height="20" relative="1" as="geometry">
            <mxPoint x="-24" y="4" as="offset" />
          </mxGeometry>
        </mxCell>
        <mxCell id="wHHLx8FjQf187PXlfKUF-346" value="" style="html=1;rounded=0;strokeColor=#0F8B8D;fontColor=#143642;fillColor=#FAE5C7;labelBackgroundColor=none;" parent="kcvAr1OlvpWyKCQqvLKW-21" vertex="1">
          <mxGeometry x="345" y="275" width="20" height="20" as="geometry" />
        </mxCell>
        <mxCell id="wHHLx8FjQf187PXlfKUF-347" value="" style="endArrow=none;html=1;rounded=0;align=center;verticalAlign=top;endFill=0;labelBackgroundColor=none;endSize=2;strokeColor=#A8201A;fontColor=default;fillColor=#FAE5C7;" parent="kcvAr1OlvpWyKCQqvLKW-21" source="wHHLx8FjQf187PXlfKUF-346" target="wHHLx8FjQf187PXlfKUF-348" edge="1">
          <mxGeometry relative="1" as="geometry" />
        </mxCell>
        <mxCell id="wHHLx8FjQf187PXlfKUF-348" value="" style="ellipse;html=1;fontSize=11;align=center;fillColor=none;points=[];aspect=fixed;resizable=0;verticalAlign=bottom;labelPosition=center;verticalLabelPosition=top;flipH=1;strokeColor=#0F8B8D;fontColor=#143642;labelBackgroundColor=none;" parent="kcvAr1OlvpWyKCQqvLKW-21" vertex="1">
          <mxGeometry x="277" y="338.5" width="8" height="8" as="geometry" />
        </mxCell>
        <mxCell id="wHHLx8FjQf187PXlfKUF-351" value="" style="shape=requiredInterface;html=1;fontSize=11;align=center;fillColor=none;points=[];aspect=fixed;resizable=0;verticalAlign=bottom;labelPosition=center;verticalLabelPosition=top;flipH=1;strokeColor=#0F8B8D;fontColor=#143642;labelBackgroundColor=none;" parent="kcvAr1OlvpWyKCQqvLKW-21" vertex="1">
          <mxGeometry x="272" y="336.5" width="5" height="10" as="geometry" />
        </mxCell>
        <mxCell id="wHHLx8FjQf187PXlfKUF-354" value="" style="shape=requiredInterface;html=1;fontSize=11;align=center;fillColor=none;points=[];aspect=fixed;resizable=0;verticalAlign=bottom;labelPosition=center;verticalLabelPosition=top;flipH=1;strokeColor=#0F8B8D;fontColor=#143642;labelBackgroundColor=none;" parent="kcvAr1OlvpWyKCQqvLKW-21" vertex="1">
          <mxGeometry x="267" y="475.5" width="5" height="10" as="geometry" />
        </mxCell>
        <mxCell id="wHHLx8FjQf187PXlfKUF-355" value="" style="html=1;rounded=0;strokeColor=#0F8B8D;fontColor=#143642;fillColor=#FAE5C7;labelBackgroundColor=none;" parent="kcvAr1OlvpWyKCQqvLKW-21" vertex="1">
          <mxGeometry x="345" y="415" width="20" height="20" as="geometry" />
        </mxCell>
        <mxCell id="wHHLx8FjQf187PXlfKUF-356" value="" style="endArrow=none;html=1;rounded=0;align=center;verticalAlign=top;endFill=0;labelBackgroundColor=none;endSize=2;strokeColor=#A8201A;fontColor=default;fillColor=#FAE5C7;" parent="kcvAr1OlvpWyKCQqvLKW-21" source="wHHLx8FjQf187PXlfKUF-357" edge="1">
          <mxGeometry relative="1" as="geometry">
            <mxPoint x="277" y="481.5" as="targetPoint" />
          </mxGeometry>
        </mxCell>
        <mxCell id="wHHLx8FjQf187PXlfKUF-358" value="" style="endArrow=none;html=1;rounded=0;align=center;verticalAlign=top;endFill=0;labelBackgroundColor=none;endSize=2;strokeColor=#A8201A;fontColor=default;fillColor=#FAE5C7;" parent="kcvAr1OlvpWyKCQqvLKW-21" source="wHHLx8FjQf187PXlfKUF-355" target="wHHLx8FjQf187PXlfKUF-357" edge="1">
          <mxGeometry relative="1" as="geometry">
            <mxPoint x="345" y="425" as="sourcePoint" />
            <mxPoint x="305" y="425" as="targetPoint" />
          </mxGeometry>
        </mxCell>
        <mxCell id="wHHLx8FjQf187PXlfKUF-357" value="" style="ellipse;html=1;fontSize=11;align=center;fillColor=none;points=[];aspect=fixed;resizable=0;verticalAlign=bottom;labelPosition=center;verticalLabelPosition=top;flipH=1;strokeColor=#0F8B8D;fontColor=#143642;labelBackgroundColor=none;" parent="kcvAr1OlvpWyKCQqvLKW-21" vertex="1">
          <mxGeometry x="272" y="477.5" width="8" height="8" as="geometry" />
        </mxCell>
        <mxCell id="wHHLx8FjQf187PXlfKUF-359" value="" style="html=1;rounded=0;strokeColor=#0F8B8D;fontColor=#143642;fillColor=#FAE5C7;labelBackgroundColor=none;" parent="kcvAr1OlvpWyKCQqvLKW-21" vertex="1">
          <mxGeometry x="345" y="570" width="20" height="20" as="geometry" />
        </mxCell>
        <mxCell id="wHHLx8FjQf187PXlfKUF-360" value="" style="endArrow=none;html=1;rounded=0;align=center;verticalAlign=top;endFill=0;labelBackgroundColor=none;endSize=2;strokeColor=#A8201A;fontColor=default;fillColor=#FAE5C7;" parent="kcvAr1OlvpWyKCQqvLKW-21" source="wHHLx8FjQf187PXlfKUF-359" target="wHHLx8FjQf187PXlfKUF-361" edge="1">
          <mxGeometry relative="1" as="geometry" />
        </mxCell>
        <mxCell id="wHHLx8FjQf187PXlfKUF-361" value="" style="ellipse;html=1;fontSize=11;align=center;fillColor=none;points=[];aspect=fixed;resizable=0;verticalAlign=bottom;labelPosition=center;verticalLabelPosition=top;flipH=1;strokeColor=#0F8B8D;fontColor=#143642;labelBackgroundColor=none;" parent="kcvAr1OlvpWyKCQqvLKW-21" vertex="1">
          <mxGeometry x="279" y="561" width="8" height="8" as="geometry" />
        </mxCell>
        <mxCell id="wHHLx8FjQf187PXlfKUF-364" value="" style="shape=requiredInterface;html=1;fontSize=11;align=center;fillColor=none;points=[];aspect=fixed;resizable=0;verticalAlign=bottom;labelPosition=center;verticalLabelPosition=top;flipH=1;strokeColor=#0F8B8D;fontColor=#143642;labelBackgroundColor=none;" parent="kcvAr1OlvpWyKCQqvLKW-21" vertex="1">
          <mxGeometry x="274" y="560" width="5" height="10" as="geometry" />
        </mxCell>
        <mxCell id="wHHLx8FjQf187PXlfKUF-365" value="REST" style="text;html=1;whiteSpace=wrap;strokeColor=none;fillColor=none;align=center;verticalAlign=middle;rounded=0;fontColor=#143642;labelBackgroundColor=none;" parent="kcvAr1OlvpWyKCQqvLKW-21" vertex="1">
          <mxGeometry x="274" y="230" width="60" height="30" as="geometry" />
        </mxCell>
        <mxCell id="wHHLx8FjQf187PXlfKUF-366" value="SOAP" style="text;html=1;whiteSpace=wrap;strokeColor=none;fillColor=none;align=center;verticalAlign=middle;rounded=0;fontColor=#143642;labelBackgroundColor=none;" parent="kcvAr1OlvpWyKCQqvLKW-21" vertex="1">
          <mxGeometry x="274" y="385" width="60" height="30" as="geometry" />
        </mxCell>
        <mxCell id="wHHLx8FjQf187PXlfKUF-367" value="CSV" style="text;html=1;whiteSpace=wrap;strokeColor=none;fillColor=none;align=center;verticalAlign=middle;rounded=0;fontColor=#143642;labelBackgroundColor=none;" parent="kcvAr1OlvpWyKCQqvLKW-21" vertex="1">
          <mxGeometry x="285" y="540" width="60" height="30" as="geometry" />
        </mxCell>
        <mxCell id="wHHLx8FjQf187PXlfKUF-378" value="111" style="text;html=1;whiteSpace=wrap;strokeColor=none;fillColor=none;align=center;verticalAlign=middle;rounded=0;fontColor=#143642;labelBackgroundColor=none;" parent="kcvAr1OlvpWyKCQqvLKW-21" vertex="1">
          <mxGeometry x="315" y="520" width="60" height="30" as="geometry" />
        </mxCell>
        <mxCell id="wHHLx8FjQf187PXlfKUF-380" value="8081" style="text;html=1;whiteSpace=wrap;strokeColor=none;fillColor=none;align=center;verticalAlign=middle;rounded=0;fontColor=#143642;labelBackgroundColor=none;" parent="kcvAr1OlvpWyKCQqvLKW-21" vertex="1">
          <mxGeometry x="315" y="370" width="60" height="30" as="geometry" />
        </mxCell>
        <mxCell id="wHHLx8FjQf187PXlfKUF-381" value="8080" style="text;html=1;whiteSpace=wrap;strokeColor=none;fillColor=none;align=center;verticalAlign=middle;rounded=0;fontColor=#143642;labelBackgroundColor=none;" parent="kcvAr1OlvpWyKCQqvLKW-21" vertex="1">
          <mxGeometry x="315" y="220" width="60" height="30" as="geometry" />
        </mxCell>
        <mxCell id="kcvAr1OlvpWyKCQqvLKW-24" value="&lt;p style=&quot;margin:0px;margin-top:6px;text-align:center;&quot;&gt;&lt;b&gt;OffresBatch&lt;/b&gt;&lt;/p&gt;&lt;hr size=&quot;1&quot; style=&quot;border-style:solid;&quot;&gt;&lt;p style=&quot;margin:0px;margin-left:8px;&quot;&gt;&lt;br&gt;&lt;/p&gt;" style="align=left;overflow=fill;html=1;dropTarget=0;whiteSpace=wrap;strokeColor=#0F8B8D;fontColor=#143642;fillColor=#FAE5C7;labelBackgroundColor=none;" vertex="1" parent="kcvAr1OlvpWyKCQqvLKW-21">
          <mxGeometry x="67.34" y="345" width="150" height="110" as="geometry" />
        </mxCell>
        <mxCell id="kcvAr1OlvpWyKCQqvLKW-25" value="" style="shape=component;jettyWidth=8;jettyHeight=4;strokeColor=#0F8B8D;fontColor=#143642;fillColor=#FAE5C7;labelBackgroundColor=none;" vertex="1" parent="kcvAr1OlvpWyKCQqvLKW-24">
          <mxGeometry x="1" width="20" height="20" relative="1" as="geometry">
            <mxPoint x="-24" y="4" as="offset" />
          </mxGeometry>
        </mxCell>
        <mxCell id="kcvAr1OlvpWyKCQqvLKW-30" value="" style="html=1;rounded=0;strokeColor=#0F8B8D;fontColor=#143642;fillColor=#FAE5C7;" vertex="1" parent="kcvAr1OlvpWyKCQqvLKW-21">
          <mxGeometry x="217.34" y="390" width="20" height="20" as="geometry" />
        </mxCell>
        <mxCell id="kcvAr1OlvpWyKCQqvLKW-32" value="" style="shape=requiredInterface;html=1;fontSize=11;align=center;fillColor=none;points=[];aspect=fixed;resizable=0;verticalAlign=bottom;labelPosition=center;verticalLabelPosition=top;flipH=1;strokeColor=#0F8B8D;fontColor=#143642;" vertex="1" parent="kcvAr1OlvpWyKCQqvLKW-21">
          <mxGeometry x="272" y="338.5" width="5" height="10" as="geometry" />
        </mxCell>
        <mxCell id="kcvAr1OlvpWyKCQqvLKW-31" value="" style="endArrow=none;html=1;rounded=0;align=center;verticalAlign=top;endFill=0;labelBackgroundColor=none;endSize=2;strokeColor=#A8201A;fontColor=#143642;fillColor=#FAE5C7;" edge="1" source="kcvAr1OlvpWyKCQqvLKW-30" target="kcvAr1OlvpWyKCQqvLKW-32" parent="kcvAr1OlvpWyKCQqvLKW-21">
          <mxGeometry relative="1" as="geometry" />
        </mxCell>
        <mxCell id="kcvAr1OlvpWyKCQqvLKW-33" value="" style="endArrow=none;html=1;rounded=0;align=center;verticalAlign=top;endFill=0;labelBackgroundColor=none;endSize=2;strokeColor=#A8201A;fontColor=#143642;fillColor=#FAE5C7;exitX=1;exitY=0.5;exitDx=0;exitDy=0;entryX=1.067;entryY=0.65;entryDx=0;entryDy=0;entryPerimeter=0;" edge="1" parent="kcvAr1OlvpWyKCQqvLKW-21" source="kcvAr1OlvpWyKCQqvLKW-30">
          <mxGeometry relative="1" as="geometry">
            <mxPoint x="467.34" y="569" as="sourcePoint" />
            <mxPoint x="267.00499999999994" y="485.5" as="targetPoint" />
          </mxGeometry>
        </mxCell>
        <mxCell id="kcvAr1OlvpWyKCQqvLKW-34" value="" style="endArrow=none;html=1;rounded=0;align=center;verticalAlign=top;endFill=0;labelBackgroundColor=none;endSize=2;strokeColor=#A8201A;fontColor=#143642;fillColor=#FAE5C7;exitX=1;exitY=0.75;exitDx=0;exitDy=0;entryX=1.458;entryY=0.667;entryDx=0;entryDy=0;entryPerimeter=0;" edge="1" parent="kcvAr1OlvpWyKCQqvLKW-21" source="kcvAr1OlvpWyKCQqvLKW-30" target="wHHLx8FjQf187PXlfKUF-361">
          <mxGeometry relative="1" as="geometry">
            <mxPoint x="457" y="685.5" as="sourcePoint" />
            <mxPoint x="607" y="436.5" as="targetPoint" />
          </mxGeometry>
        </mxCell>
        <mxCell id="wHHLx8FjQf187PXlfKUF-370" value="" style="html=1;rounded=0;strokeColor=#0F8B8D;fontColor=#143642;fillColor=#FAE5C7;labelBackgroundColor=none;" parent="kcvAr1OlvpWyKCQqvLKW-21" vertex="1">
          <mxGeometry x="442.5" y="82" width="25" height="25" as="geometry" />
        </mxCell>
        <mxCell id="wHHLx8FjQf187PXlfKUF-371" value="" style="endArrow=none;html=1;rounded=0;align=center;verticalAlign=top;endFill=0;labelBackgroundColor=none;endSize=2;strokeColor=#A8201A;fontColor=default;fillColor=#FAE5C7;" parent="kcvAr1OlvpWyKCQqvLKW-21" source="wHHLx8FjQf187PXlfKUF-370" edge="1">
          <mxGeometry relative="1" as="geometry">
            <mxPoint x="402.77747669541213" y="40.37847584797282" as="targetPoint" />
          </mxGeometry>
        </mxCell>
        <mxCell id="wHHLx8FjQf187PXlfKUF-372" value="" style="ellipse;html=1;fontSize=11;align=center;fillColor=none;points=[];aspect=fixed;resizable=0;verticalAlign=bottom;labelPosition=center;verticalLabelPosition=top;flipH=1;strokeColor=#0F8B8D;fontColor=#143642;labelBackgroundColor=none;" parent="kcvAr1OlvpWyKCQqvLKW-21" vertex="1">
          <mxGeometry x="398" y="41.5" width="8" height="8" as="geometry" />
        </mxCell>
        <mxCell id="wHHLx8FjQf187PXlfKUF-376" value="" style="shape=requiredInterface;html=1;fontSize=11;align=center;fillColor=none;points=[];aspect=fixed;resizable=0;verticalAlign=bottom;labelPosition=center;verticalLabelPosition=top;flipH=1;strokeColor=#0F8B8D;fontColor=#143642;rotation=90;labelBackgroundColor=none;" parent="kcvAr1OlvpWyKCQqvLKW-21" vertex="1">
          <mxGeometry x="399" y="31.5" width="5" height="10" as="geometry" />
        </mxCell>
        <mxCell id="wHHLx8FjQf187PXlfKUF-377" value="3306" style="text;html=1;whiteSpace=wrap;strokeColor=none;fillColor=none;align=center;verticalAlign=middle;rounded=0;fontColor=#143642;labelBackgroundColor=none;" parent="kcvAr1OlvpWyKCQqvLKW-21" vertex="1">
          <mxGeometry x="380" y="77" width="60" height="30" as="geometry" />
        </mxCell>
        <mxCell id="wHHLx8FjQf187PXlfKUF-369" value="" style="shape=cylinder3;whiteSpace=wrap;html=1;boundedLbl=1;backgroundOutline=1;size=15;strokeColor=#0F8B8D;fontColor=#143642;fillColor=#FAE5C7;labelBackgroundColor=none;" parent="kcvAr1OlvpWyKCQqvLKW-21" vertex="1">
          <mxGeometry x="410" y="109.5" width="90" height="60" as="geometry" />
        </mxCell>
        <mxCell id="wHHLx8FjQf187PXlfKUF-322" value="&lt;p style=&quot;margin:0px;margin-top:6px;text-align:center;&quot;&gt;&lt;b&gt;OffresService&lt;/b&gt;&lt;/p&gt;&lt;hr size=&quot;1&quot; style=&quot;border-style:solid;&quot;&gt;&lt;p style=&quot;margin:0px;margin-left:8px;&quot;&gt;&lt;br&gt;&lt;/p&gt;" style="align=left;overflow=fill;html=1;dropTarget=0;whiteSpace=wrap;strokeColor=#0F8B8D;fontColor=#143642;fillColor=#FAE5C7;labelBackgroundColor=none;" parent="kcvAr1OlvpWyKCQqvLKW-21" vertex="1">
          <mxGeometry x="148" y="45.5" width="150" height="110" as="geometry" />
        </mxCell>
        <mxCell id="wHHLx8FjQf187PXlfKUF-323" value="" style="shape=component;jettyWidth=8;jettyHeight=4;strokeColor=#0F8B8D;fontColor=#143642;fillColor=#FAE5C7;labelBackgroundColor=none;" parent="wHHLx8FjQf187PXlfKUF-322" vertex="1">
          <mxGeometry x="1" width="20" height="20" relative="1" as="geometry">
            <mxPoint x="-24" y="4" as="offset" />
          </mxGeometry>
        </mxCell>
        <mxCell id="wHHLx8FjQf187PXlfKUF-374" value="" style="html=1;rounded=0;strokeColor=#0F8B8D;fontColor=#143642;fillColor=#FAE5C7;labelBackgroundColor=none;" parent="kcvAr1OlvpWyKCQqvLKW-21" vertex="1">
          <mxGeometry x="298" y="95.5" width="20" height="20" as="geometry" />
        </mxCell>
        <mxCell id="wHHLx8FjQf187PXlfKUF-375" value="" style="endArrow=none;html=1;rounded=0;align=center;verticalAlign=top;endFill=0;labelBackgroundColor=none;endSize=2;strokeColor=#A8201A;fontColor=default;fillColor=#FAE5C7;" parent="kcvAr1OlvpWyKCQqvLKW-21" source="wHHLx8FjQf187PXlfKUF-374" target="wHHLx8FjQf187PXlfKUF-376" edge="1">
          <mxGeometry relative="1" as="geometry" />
        </mxCell>
        <mxCell id="kcvAr1OlvpWyKCQqvLKW-40" value="" style="html=1;rounded=0;strokeColor=#0F8B8D;fontColor=#143642;fillColor=#FAE5C7;" vertex="1" parent="kcvAr1OlvpWyKCQqvLKW-21">
          <mxGeometry x="47.34" y="390" width="20" height="20" as="geometry" />
        </mxCell>
        <mxCell id="kcvAr1OlvpWyKCQqvLKW-43" value="" style="shape=hexagon;perimeter=hexagonPerimeter2;whiteSpace=wrap;html=1;fixedSize=1;strokeColor=#0F8B8D;fontColor=#143642;fillColor=#FAE5C7;size=20;" vertex="1" parent="kcvAr1OlvpWyKCQqvLKW-21">
          <mxGeometry x="218" y="105.5" width="65" height="38" as="geometry" />
        </mxCell>
        <mxCell id="kcvAr1OlvpWyKCQqvLKW-49" value="" style="html=1;rounded=0;strokeColor=#0F8B8D;fontColor=#143642;fillColor=#FAE5C7;" vertex="1" parent="kcvAr1OlvpWyKCQqvLKW-21">
          <mxGeometry x="123" y="108" width="25" height="20" as="geometry" />
        </mxCell>
        <mxCell id="kcvAr1OlvpWyKCQqvLKW-50" value="" style="endArrow=none;html=1;rounded=0;align=center;verticalAlign=top;endFill=0;labelBackgroundColor=none;endSize=2;strokeColor=#A8201A;fontColor=#143642;fillColor=#FAE5C7;" edge="1" source="kcvAr1OlvpWyKCQqvLKW-49" target="kcvAr1OlvpWyKCQqvLKW-51" parent="kcvAr1OlvpWyKCQqvLKW-21">
          <mxGeometry relative="1" as="geometry" />
        </mxCell>
        <mxCell id="kcvAr1OlvpWyKCQqvLKW-51" value="" style="ellipse;html=1;fontSize=11;align=center;fillColor=none;points=[];aspect=fixed;resizable=0;verticalAlign=bottom;labelPosition=center;verticalLabelPosition=top;flipH=1;strokeColor=#0F8B8D;fontColor=#143642;" vertex="1" parent="kcvAr1OlvpWyKCQqvLKW-21">
          <mxGeometry x="20" y="134" width="8" height="8" as="geometry" />
        </mxCell>
        <mxCell id="kcvAr1OlvpWyKCQqvLKW-54" value="" style="shape=requiredInterface;html=1;fontSize=11;align=center;fillColor=none;points=[];aspect=fixed;resizable=0;verticalAlign=bottom;labelPosition=center;verticalLabelPosition=top;flipH=1;strokeColor=#0F8B8D;fontColor=#143642;" vertex="1" parent="kcvAr1OlvpWyKCQqvLKW-21">
          <mxGeometry x="20" y="133" width="5" height="10" as="geometry" />
        </mxCell>
        <mxCell id="kcvAr1OlvpWyKCQqvLKW-57" value="JSON" style="text;html=1;whiteSpace=wrap;strokeColor=none;fillColor=none;align=center;verticalAlign=middle;rounded=0;labelBackgroundColor=none;fontColor=#143642;" vertex="1" parent="kcvAr1OlvpWyKCQqvLKW-21">
          <mxGeometry x="31.340000000000003" y="310" width="60" height="30" as="geometry" />
        </mxCell>
        <mxCell id="kcvAr1OlvpWyKCQqvLKW-126" value="" style="shape=requiredInterface;html=1;fontSize=11;align=center;fillColor=none;points=[];aspect=fixed;resizable=0;verticalAlign=bottom;labelPosition=center;verticalLabelPosition=top;flipH=1;strokeColor=#0F8B8D;fontColor=#143642;" vertex="1" parent="kcvAr1OlvpWyKCQqvLKW-21">
          <mxGeometry x="15" y="138" width="5" height="10" as="geometry" />
        </mxCell>
        <mxCell id="kcvAr1OlvpWyKCQqvLKW-129" value="" style="shape=hexagon;perimeter=hexagonPerimeter2;whiteSpace=wrap;html=1;fixedSize=1;strokeColor=#0F8B8D;fontColor=#143642;fillColor=#FAE5C7;size=20;" vertex="1" parent="kcvAr1OlvpWyKCQqvLKW-21">
          <mxGeometry x="142.34" y="407" width="65" height="38" as="geometry" />
        </mxCell>
        <mxCell id="kcvAr1OlvpWyKCQqvLKW-154" value="8082" style="text;html=1;whiteSpace=wrap;strokeColor=none;fillColor=none;align=center;verticalAlign=middle;rounded=0;fontColor=#143642;" vertex="1" parent="kcvAr1OlvpWyKCQqvLKW-21">
          <mxGeometry x="15" y="85.5" width="60" height="30" as="geometry" />
        </mxCell>
        <mxCell id="kcvAr1OlvpWyKCQqvLKW-159" value="&lt;p style=&quot;margin:0px;margin-top:6px;text-align:center;&quot;&gt;&lt;b&gt;JobQueue&lt;/b&gt;&lt;/p&gt;&lt;hr size=&quot;1&quot; style=&quot;border-style:solid;&quot;&gt;&lt;p style=&quot;margin:0px;margin-left:8px;&quot;&gt;MoM&lt;/p&gt;&lt;p style=&quot;margin:0px;margin-left:8px;&quot;&gt;RabbitMQ&lt;/p&gt;" style="align=left;overflow=fill;html=1;dropTarget=0;whiteSpace=wrap;strokeColor=#0F8B8D;fontColor=#143642;fillColor=#FAE5C7;labelBackgroundColor=none;" vertex="1" parent="kcvAr1OlvpWyKCQqvLKW-21">
          <mxGeometry x="90" y="205" width="130" height="90" as="geometry" />
        </mxCell>
        <mxCell id="kcvAr1OlvpWyKCQqvLKW-160" value="" style="shape=component;jettyWidth=8;jettyHeight=4;strokeColor=#0F8B8D;fontColor=#143642;fillColor=#FAE5C7;labelBackgroundColor=none;" vertex="1" parent="kcvAr1OlvpWyKCQqvLKW-159">
          <mxGeometry x="1" width="20" height="20" relative="1" as="geometry">
            <mxPoint x="-24" y="4" as="offset" />
          </mxGeometry>
        </mxCell>
        <mxCell id="kcvAr1OlvpWyKCQqvLKW-164" value="" style="html=1;rounded=0;strokeColor=#0F8B8D;fontColor=#143642;fillColor=#FAE5C7;" vertex="1" parent="kcvAr1OlvpWyKCQqvLKW-21">
          <mxGeometry x="70" y="250" width="20" height="20" as="geometry" />
        </mxCell>
        <mxCell id="kcvAr1OlvpWyKCQqvLKW-170" value="" style="html=1;rounded=0;strokeColor=#0F8B8D;fontColor=#143642;fillColor=#FAE5C7;" vertex="1" parent="kcvAr1OlvpWyKCQqvLKW-21">
          <mxGeometry x="300.34000000000003" y="94" width="20" height="20" as="geometry" />
        </mxCell>
        <mxCell id="kcvAr1OlvpWyKCQqvLKW-171" value="" style="endArrow=none;html=1;rounded=0;align=center;verticalAlign=top;endFill=0;labelBackgroundColor=none;endSize=2;strokeColor=#A8201A;fontColor=#143642;fillColor=#FAE5C7;" edge="1" source="kcvAr1OlvpWyKCQqvLKW-170" target="kcvAr1OlvpWyKCQqvLKW-172" parent="kcvAr1OlvpWyKCQqvLKW-21">
          <mxGeometry relative="1" as="geometry" />
        </mxCell>
        <mxCell id="kcvAr1OlvpWyKCQqvLKW-172" value="" style="shape=requiredInterface;html=1;fontSize=11;align=center;fillColor=none;points=[];aspect=fixed;resizable=0;verticalAlign=bottom;labelPosition=center;verticalLabelPosition=top;flipH=1;strokeColor=#0F8B8D;fontColor=#143642;" vertex="1" parent="kcvAr1OlvpWyKCQqvLKW-21">
          <mxGeometry x="47.34000000000003" y="230" width="5" height="10" as="geometry" />
        </mxCell>
        <mxCell id="kcvAr1OlvpWyKCQqvLKW-41" value="" style="endArrow=none;html=1;rounded=0;align=center;verticalAlign=top;endFill=0;labelBackgroundColor=none;endSize=2;strokeColor=#A8201A;fontColor=#143642;fillColor=#FAE5C7;entryX=0.3;entryY=0.833;entryDx=0;entryDy=0;entryPerimeter=0;" edge="1" source="kcvAr1OlvpWyKCQqvLKW-40" target="wHHLx8FjQf187PXlfKUF-342" parent="1">
          <mxGeometry relative="1" as="geometry">
            <mxPoint x="277.35381990335213" y="379.2172479085134" as="targetPoint" />
          </mxGeometry>
        </mxCell>
        <mxCell id="kcvAr1OlvpWyKCQqvLKW-53" value="" style="endArrow=none;html=1;rounded=0;align=center;verticalAlign=top;endFill=0;labelBackgroundColor=none;endSize=2;strokeColor=#A8201A;fontColor=#143642;fillColor=#FAE5C7;" edge="1" source="kcvAr1OlvpWyKCQqvLKW-52" target="kcvAr1OlvpWyKCQqvLKW-54" parent="1">
          <mxGeometry relative="1" as="geometry" />
        </mxCell>
        <mxCell id="kcvAr1OlvpWyKCQqvLKW-109" value="middleware" style="shape=umlFrame;whiteSpace=wrap;html=1;pointerEvents=0;recursiveResize=0;container=1;collapsible=0;width=160;strokeColor=#0F8B8D;fontColor=#143642;fillColor=#FAE5C7;" vertex="1" parent="1">
          <mxGeometry x="290" y="235" width="401.25" height="665" as="geometry" />
        </mxCell>
        <mxCell id="kcvAr1OlvpWyKCQqvLKW-115" value="&amp;nbsp; &amp;nbsp; &amp;nbsp; &amp;nbsp;mobile APIGetaway&lt;hr size=&quot;1&quot; style=&quot;border-style:solid;&quot;&gt;&lt;p style=&quot;margin:0px;margin-left:8px;&quot;&gt;&lt;br&gt;&lt;/p&gt;" style="align=left;overflow=fill;html=1;dropTarget=0;whiteSpace=wrap;strokeColor=#0F8B8D;fontColor=#143642;fillColor=#FAE5C7;labelBackgroundColor=none;" vertex="1" parent="kcvAr1OlvpWyKCQqvLKW-109">
          <mxGeometry x="195.25" y="505" width="150" height="110" as="geometry" />
        </mxCell>
        <mxCell id="kcvAr1OlvpWyKCQqvLKW-116" value="" style="shape=component;jettyWidth=8;jettyHeight=4;strokeColor=#0F8B8D;fontColor=#143642;fillColor=#FAE5C7;labelBackgroundColor=none;" vertex="1" parent="kcvAr1OlvpWyKCQqvLKW-115">
          <mxGeometry x="1" width="20" height="20" relative="1" as="geometry">
            <mxPoint x="-24" y="4" as="offset" />
          </mxGeometry>
        </mxCell>
        <mxCell id="kcvAr1OlvpWyKCQqvLKW-117" value="" style="shape=hexagon;perimeter=hexagonPerimeter2;whiteSpace=wrap;html=1;fixedSize=1;strokeColor=#0F8B8D;fontColor=#143642;fillColor=#FAE5C7;size=20;" vertex="1" parent="kcvAr1OlvpWyKCQqvLKW-109">
          <mxGeometry x="276.25" y="565" width="65" height="38" as="geometry" />
        </mxCell>
        <mxCell id="kcvAr1OlvpWyKCQqvLKW-121" value="" style="html=1;rounded=0;strokeColor=#0F8B8D;fontColor=#143642;fillColor=#FAE5C7;" vertex="1" parent="kcvAr1OlvpWyKCQqvLKW-109">
          <mxGeometry x="176.25" y="545" width="20" height="20" as="geometry" />
        </mxCell>
        <mxCell id="kcvAr1OlvpWyKCQqvLKW-122" value="" style="endArrow=none;html=1;rounded=0;align=center;verticalAlign=top;endFill=0;labelBackgroundColor=none;endSize=2;strokeColor=#A8201A;fontColor=#143642;fillColor=#FAE5C7;" edge="1" source="kcvAr1OlvpWyKCQqvLKW-121" target="kcvAr1OlvpWyKCQqvLKW-123" parent="kcvAr1OlvpWyKCQqvLKW-109">
          <mxGeometry relative="1" as="geometry" />
        </mxCell>
        <mxCell id="kcvAr1OlvpWyKCQqvLKW-124" value="" style="html=1;rounded=0;strokeColor=#0F8B8D;fontColor=#143642;fillColor=#FAE5C7;" vertex="1" parent="kcvAr1OlvpWyKCQqvLKW-109">
          <mxGeometry x="346.25" y="545" width="20" height="20" as="geometry" />
        </mxCell>
        <mxCell id="kcvAr1OlvpWyKCQqvLKW-44" value="&amp;nbsp; &amp;nbsp; &amp;nbsp;desktop APIGetaway&lt;hr size=&quot;1&quot; style=&quot;border-style:solid;&quot;&gt;&lt;p style=&quot;margin:0px;margin-left:8px;&quot;&gt;&lt;br&gt;&lt;/p&gt;" style="align=left;overflow=fill;html=1;dropTarget=0;whiteSpace=wrap;strokeColor=#0F8B8D;fontColor=#143642;fillColor=#FAE5C7;labelBackgroundColor=none;" vertex="1" parent="kcvAr1OlvpWyKCQqvLKW-109">
          <mxGeometry x="191.25" y="55" width="150" height="110" as="geometry" />
        </mxCell>
        <mxCell id="kcvAr1OlvpWyKCQqvLKW-45" value="" style="shape=component;jettyWidth=8;jettyHeight=4;strokeColor=#0F8B8D;fontColor=#143642;fillColor=#FAE5C7;labelBackgroundColor=none;" vertex="1" parent="kcvAr1OlvpWyKCQqvLKW-44">
          <mxGeometry x="1" width="20" height="20" relative="1" as="geometry">
            <mxPoint x="-24" y="4" as="offset" />
          </mxGeometry>
        </mxCell>
        <mxCell id="kcvAr1OlvpWyKCQqvLKW-46" value="" style="html=1;rounded=0;strokeColor=#0F8B8D;fontColor=#143642;fillColor=#FAE5C7;" vertex="1" parent="kcvAr1OlvpWyKCQqvLKW-109">
          <mxGeometry x="171.25" y="97" width="20" height="20" as="geometry" />
        </mxCell>
        <mxCell id="kcvAr1OlvpWyKCQqvLKW-52" value="" style="html=1;rounded=0;strokeColor=#0F8B8D;fontColor=#143642;fillColor=#FAE5C7;" vertex="1" parent="kcvAr1OlvpWyKCQqvLKW-109">
          <mxGeometry x="341.25" y="100" width="25" height="20" as="geometry" />
        </mxCell>
        <mxCell id="kcvAr1OlvpWyKCQqvLKW-114" value="" style="shape=hexagon;perimeter=hexagonPerimeter2;whiteSpace=wrap;html=1;fixedSize=1;strokeColor=#0F8B8D;fontColor=#143642;fillColor=#FAE5C7;size=20;" vertex="1" parent="kcvAr1OlvpWyKCQqvLKW-109">
          <mxGeometry x="265.25" y="120" width="65" height="38" as="geometry" />
        </mxCell>
        <mxCell id="kcvAr1OlvpWyKCQqvLKW-130" value="&amp;nbsp; &amp;nbsp; &amp;nbsp; &amp;nbsp; &amp;nbsp; &amp;nbsp; &amp;nbsp;ingress Ctrl&lt;hr size=&quot;1&quot; style=&quot;border-style:solid;&quot;&gt;&lt;p style=&quot;margin:0px;margin-left:8px;&quot;&gt;Reverse Proxy + VirtualHost&lt;/p&gt;&lt;p style=&quot;margin:0px;margin-left:8px;&quot;&gt;&lt;br&gt;&lt;/p&gt;&lt;p style=&quot;margin:0px;margin-left:8px;&quot;&gt;a besoin d&#39;un LB interne&lt;/p&gt;" style="align=left;overflow=fill;html=1;dropTarget=0;whiteSpace=wrap;strokeColor=#0F8B8D;fontColor=#143642;fillColor=#FAE5C7;labelBackgroundColor=none;" vertex="1" parent="kcvAr1OlvpWyKCQqvLKW-109">
          <mxGeometry x="35" y="265" width="150" height="110" as="geometry" />
        </mxCell>
        <mxCell id="kcvAr1OlvpWyKCQqvLKW-131" value="" style="shape=component;jettyWidth=8;jettyHeight=4;strokeColor=#0F8B8D;fontColor=#143642;fillColor=#FAE5C7;labelBackgroundColor=none;" vertex="1" parent="kcvAr1OlvpWyKCQqvLKW-130">
          <mxGeometry x="1" width="20" height="20" relative="1" as="geometry">
            <mxPoint x="-24" y="4" as="offset" />
          </mxGeometry>
        </mxCell>
        <mxCell id="kcvAr1OlvpWyKCQqvLKW-132" value="" style="html=1;rounded=0;strokeColor=#0F8B8D;fontColor=#143642;fillColor=#FAE5C7;" vertex="1" parent="kcvAr1OlvpWyKCQqvLKW-109">
          <mxGeometry x="15" y="325" width="20" height="15" as="geometry" />
        </mxCell>
        <mxCell id="wHHLx8FjQf187PXlfKUF-339" value="" style="ellipse;html=1;fontSize=11;align=center;fillColor=none;points=[];aspect=fixed;resizable=0;verticalAlign=bottom;labelPosition=center;verticalLabelPosition=top;flipH=1;strokeColor=#0F8B8D;fontColor=#143642;labelBackgroundColor=none;" parent="kcvAr1OlvpWyKCQqvLKW-109" vertex="1">
          <mxGeometry x="148.75" y="160.5" width="8" height="8" as="geometry" />
        </mxCell>
        <mxCell id="wHHLx8FjQf187PXlfKUF-342" value="" style="shape=requiredInterface;html=1;fontSize=11;align=center;fillColor=none;points=[];aspect=fixed;resizable=0;verticalAlign=bottom;labelPosition=center;verticalLabelPosition=top;flipH=1;strokeColor=#0F8B8D;fontColor=#143642;labelBackgroundColor=none;" parent="kcvAr1OlvpWyKCQqvLKW-109" vertex="1">
          <mxGeometry x="143.75" y="160.5" width="5" height="10" as="geometry" />
        </mxCell>
        <mxCell id="kcvAr1OlvpWyKCQqvLKW-47" value="" style="endArrow=none;html=1;rounded=0;align=center;verticalAlign=top;endFill=0;labelBackgroundColor=none;endSize=2;strokeColor=#A8201A;fontColor=#143642;fillColor=#FAE5C7;entryX=0.458;entryY=0.729;entryDx=0;entryDy=0;entryPerimeter=0;" edge="1" source="kcvAr1OlvpWyKCQqvLKW-149" parent="kcvAr1OlvpWyKCQqvLKW-109">
          <mxGeometry relative="1" as="geometry">
            <mxPoint x="146.586" y="163.832" as="targetPoint" />
          </mxGeometry>
        </mxCell>
        <mxCell id="kcvAr1OlvpWyKCQqvLKW-146" value="80" style="text;html=1;whiteSpace=wrap;strokeColor=none;fillColor=none;align=center;verticalAlign=middle;rounded=0;fontColor=#143642;labelBackgroundColor=none;" vertex="1" parent="kcvAr1OlvpWyKCQqvLKW-109">
          <mxGeometry x="-20" y="345" width="60" height="30" as="geometry" />
        </mxCell>
        <mxCell id="kcvAr1OlvpWyKCQqvLKW-147" value="" style="html=1;rounded=0;strokeColor=#0F8B8D;fontColor=#143642;fillColor=#FAE5C7;" vertex="1" parent="kcvAr1OlvpWyKCQqvLKW-109">
          <mxGeometry x="185" y="317" width="20" height="25" as="geometry" />
        </mxCell>
        <mxCell id="kcvAr1OlvpWyKCQqvLKW-148" value="" style="endArrow=none;html=1;rounded=0;align=center;verticalAlign=top;endFill=0;labelBackgroundColor=none;endSize=2;strokeColor=#A8201A;fontColor=#143642;fillColor=#FAE5C7;" edge="1" source="kcvAr1OlvpWyKCQqvLKW-147" target="kcvAr1OlvpWyKCQqvLKW-149" parent="kcvAr1OlvpWyKCQqvLKW-109">
          <mxGeometry relative="1" as="geometry" />
        </mxCell>
        <mxCell id="kcvAr1OlvpWyKCQqvLKW-150" value="" style="endArrow=none;html=1;rounded=0;align=center;verticalAlign=top;endFill=0;labelBackgroundColor=none;endSize=2;strokeColor=#A8201A;fontColor=#143642;fillColor=#FAE5C7;entryX=0.458;entryY=0.729;entryDx=0;entryDy=0;entryPerimeter=0;" edge="1" parent="kcvAr1OlvpWyKCQqvLKW-109" source="kcvAr1OlvpWyKCQqvLKW-46" target="kcvAr1OlvpWyKCQqvLKW-149">
          <mxGeometry relative="1" as="geometry">
            <mxPoint x="465.25" y="352" as="sourcePoint" />
            <mxPoint x="436.25" y="399" as="targetPoint" />
          </mxGeometry>
        </mxCell>
        <mxCell id="kcvAr1OlvpWyKCQqvLKW-149" value="" style="shape=requiredInterface;html=1;fontSize=11;align=center;fillColor=none;points=[];aspect=fixed;resizable=0;verticalAlign=bottom;labelPosition=center;verticalLabelPosition=top;flipH=1;strokeColor=#0F8B8D;fontColor=#143642;" vertex="1" parent="kcvAr1OlvpWyKCQqvLKW-109">
          <mxGeometry x="143.75" y="160.5" width="5" height="10" as="geometry" />
        </mxCell>
        <mxCell id="kcvAr1OlvpWyKCQqvLKW-151" value="" style="html=1;rounded=0;strokeColor=#0F8B8D;fontColor=#143642;fillColor=#FAE5C7;" vertex="1" parent="kcvAr1OlvpWyKCQqvLKW-109">
          <mxGeometry x="185" y="322.5" width="20" height="20" as="geometry" />
        </mxCell>
        <mxCell id="kcvAr1OlvpWyKCQqvLKW-123" value="" style="ellipse;html=1;fontSize=11;align=center;fillColor=none;points=[];aspect=fixed;resizable=0;verticalAlign=bottom;labelPosition=center;verticalLabelPosition=top;flipH=1;strokeColor=#0F8B8D;fontColor=#143642;" vertex="1" parent="kcvAr1OlvpWyKCQqvLKW-109">
          <mxGeometry x="185" y="479" width="8" height="8" as="geometry" />
        </mxCell>
        <mxCell id="kcvAr1OlvpWyKCQqvLKW-153" value="" style="shape=requiredInterface;html=1;fontSize=11;align=center;fillColor=none;points=[];aspect=fixed;resizable=0;verticalAlign=bottom;labelPosition=center;verticalLabelPosition=top;flipH=1;strokeColor=#0F8B8D;fontColor=#143642;" vertex="1" parent="kcvAr1OlvpWyKCQqvLKW-109">
          <mxGeometry x="185" y="475" width="5" height="10" as="geometry" />
        </mxCell>
        <mxCell id="kcvAr1OlvpWyKCQqvLKW-152" value="" style="endArrow=none;html=1;rounded=0;align=center;verticalAlign=top;endFill=0;labelBackgroundColor=none;endSize=2;strokeColor=#A8201A;fontColor=#143642;fillColor=#FAE5C7;" edge="1" source="kcvAr1OlvpWyKCQqvLKW-151" target="kcvAr1OlvpWyKCQqvLKW-153" parent="kcvAr1OlvpWyKCQqvLKW-109">
          <mxGeometry relative="1" as="geometry" />
        </mxCell>
        <mxCell id="kcvAr1OlvpWyKCQqvLKW-155" value="8081" style="text;html=1;whiteSpace=wrap;strokeColor=none;fillColor=none;align=center;verticalAlign=middle;rounded=0;fontColor=#143642;" vertex="1" parent="kcvAr1OlvpWyKCQqvLKW-109">
          <mxGeometry x="131.25" y="65" width="60" height="30" as="geometry" />
        </mxCell>
        <mxCell id="kcvAr1OlvpWyKCQqvLKW-156" value="8080" style="text;html=1;whiteSpace=wrap;strokeColor=none;fillColor=none;align=center;verticalAlign=middle;rounded=0;fontColor=#143642;" vertex="1" parent="kcvAr1OlvpWyKCQqvLKW-109">
          <mxGeometry x="135.25" y="505" width="60" height="30" as="geometry" />
        </mxCell>
        <mxCell id="kcvAr1OlvpWyKCQqvLKW-161" value="" style="html=1;rounded=0;strokeColor=#0F8B8D;fontColor=#143642;fillColor=#FAE5C7;" vertex="1" parent="kcvAr1OlvpWyKCQqvLKW-109">
          <mxGeometry x="341.25" y="100" width="20" height="20" as="geometry" />
        </mxCell>
        <mxCell id="kcvAr1OlvpWyKCQqvLKW-118" value="" style="html=1;rounded=0;strokeColor=#0F8B8D;fontColor=#143642;fillColor=#FAE5C7;" vertex="1" parent="1">
          <mxGeometry x="200" y="660" width="20" height="20" as="geometry" />
        </mxCell>
        <mxCell id="kcvAr1OlvpWyKCQqvLKW-119" value="" style="endArrow=none;html=1;rounded=0;align=center;verticalAlign=top;endFill=0;labelBackgroundColor=none;endSize=2;strokeColor=#A8201A;fontColor=#143642;fillColor=#FAE5C7;" edge="1" source="kcvAr1OlvpWyKCQqvLKW-142" target="kcvAr1OlvpWyKCQqvLKW-120" parent="1">
          <mxGeometry relative="1" as="geometry" />
        </mxCell>
        <mxCell id="kcvAr1OlvpWyKCQqvLKW-125" value="" style="endArrow=none;html=1;rounded=0;align=center;verticalAlign=top;endFill=0;labelBackgroundColor=none;endSize=2;strokeColor=#A8201A;fontColor=#143642;fillColor=#FAE5C7;" edge="1" source="kcvAr1OlvpWyKCQqvLKW-124" target="kcvAr1OlvpWyKCQqvLKW-126" parent="1">
          <mxGeometry relative="1" as="geometry">
            <Array as="points" />
          </mxGeometry>
        </mxCell>
        <mxCell id="kcvAr1OlvpWyKCQqvLKW-134" value="" style="ellipse;html=1;fontSize=11;align=center;fillColor=none;points=[];aspect=fixed;resizable=0;verticalAlign=bottom;labelPosition=center;verticalLabelPosition=top;flipH=1;strokeColor=#0F8B8D;fontColor=#143642;" vertex="1" parent="1">
          <mxGeometry x="275" y="512" width="8" height="8" as="geometry" />
        </mxCell>
        <mxCell id="kcvAr1OlvpWyKCQqvLKW-133" value="" style="endArrow=none;html=1;rounded=0;align=center;verticalAlign=top;endFill=0;labelBackgroundColor=none;endSize=2;strokeColor=#A8201A;fontColor=#143642;fillColor=#FAE5C7;" edge="1" source="kcvAr1OlvpWyKCQqvLKW-132" target="kcvAr1OlvpWyKCQqvLKW-134" parent="1">
          <mxGeometry relative="1" as="geometry" />
        </mxCell>
        <mxCell id="kcvAr1OlvpWyKCQqvLKW-120" value="" style="shape=requiredInterface;html=1;fontSize=11;align=center;fillColor=none;points=[];aspect=fixed;resizable=0;verticalAlign=bottom;labelPosition=center;verticalLabelPosition=top;flipH=1;strokeColor=#0F8B8D;fontColor=#143642;" vertex="1" parent="1">
          <mxGeometry x="270" y="510" width="5" height="10" as="geometry" />
        </mxCell>
        <mxCell id="kcvAr1OlvpWyKCQqvLKW-137" value="" style="html=1;rounded=0;strokeColor=#0F8B8D;fontColor=#143642;fillColor=#FAE5C7;" vertex="1" parent="1">
          <mxGeometry x="165" y="325" width="20" height="20" as="geometry" />
        </mxCell>
        <mxCell id="kcvAr1OlvpWyKCQqvLKW-138" value="" style="endArrow=none;html=1;rounded=0;align=center;verticalAlign=top;endFill=0;labelBackgroundColor=none;endSize=2;strokeColor=#A8201A;fontColor=#143642;fillColor=#FAE5C7;exitX=1;exitY=0.5;exitDx=0;exitDy=0;" edge="1" source="kcvAr1OlvpWyKCQqvLKW-137" target="kcvAr1OlvpWyKCQqvLKW-139" parent="1">
          <mxGeometry relative="1" as="geometry">
            <mxPoint x="205" y="335" as="sourcePoint" />
          </mxGeometry>
        </mxCell>
        <mxCell id="kcvAr1OlvpWyKCQqvLKW-139" value="" style="shape=requiredInterface;html=1;fontSize=11;align=center;fillColor=none;points=[];aspect=fixed;resizable=0;verticalAlign=bottom;labelPosition=center;verticalLabelPosition=top;flipH=1;strokeColor=#0F8B8D;fontColor=#143642;" vertex="1" parent="1">
          <mxGeometry x="270" y="512" width="5" height="10" as="geometry" />
        </mxCell>
        <mxCell id="kcvAr1OlvpWyKCQqvLKW-140" value="" style="html=1;rounded=0;strokeColor=#0F8B8D;fontColor=#143642;fillColor=#FAE5C7;" vertex="1" parent="1">
          <mxGeometry x="180" y="490" width="10" height="15" as="geometry" />
        </mxCell>
        <mxCell id="kcvAr1OlvpWyKCQqvLKW-141" value="" style="endArrow=none;html=1;rounded=0;align=center;verticalAlign=top;endFill=0;labelBackgroundColor=none;endSize=2;strokeColor=#A8201A;fontColor=#143642;fillColor=#FAE5C7;" edge="1" source="kcvAr1OlvpWyKCQqvLKW-140" target="kcvAr1OlvpWyKCQqvLKW-142" parent="1">
          <mxGeometry relative="1" as="geometry" />
        </mxCell>
        <mxCell id="kcvAr1OlvpWyKCQqvLKW-143" value="" style="endArrow=none;html=1;rounded=0;align=center;verticalAlign=top;endFill=0;labelBackgroundColor=none;endSize=2;strokeColor=#A8201A;fontColor=#143642;fillColor=#FAE5C7;" edge="1" parent="1" source="kcvAr1OlvpWyKCQqvLKW-118" target="kcvAr1OlvpWyKCQqvLKW-142">
          <mxGeometry relative="1" as="geometry">
            <mxPoint x="214" y="660" as="sourcePoint" />
            <mxPoint x="270" y="520" as="targetPoint" />
          </mxGeometry>
        </mxCell>
        <mxCell id="kcvAr1OlvpWyKCQqvLKW-142" value="" style="shape=requiredInterface;html=1;fontSize=11;align=center;fillColor=none;points=[];aspect=fixed;resizable=0;verticalAlign=bottom;labelPosition=center;verticalLabelPosition=top;flipH=1;strokeColor=#0F8B8D;fontColor=#143642;" vertex="1" parent="1">
          <mxGeometry x="270" y="512" width="5" height="10" as="geometry" />
        </mxCell>
        <mxCell id="kcvAr1OlvpWyKCQqvLKW-157" value="noms de domaine différents" style="shape=note2;boundedLbl=1;whiteSpace=wrap;html=1;size=25;verticalAlign=top;align=center;fillColor=#1ba1e2;fontColor=#ffffff;strokeColor=#006EAF;labelBackgroundColor=none;" vertex="1" parent="1">
          <mxGeometry x="100" y="750" width="150" height="70" as="geometry" />
        </mxCell>
        <mxCell id="kcvAr1OlvpWyKCQqvLKW-158" value="" style="endArrow=none;dashed=1;html=1;dashPattern=1 3;strokeWidth=2;rounded=0;strokeColor=#A8201A;fontColor=#143642;fillColor=#FAE5C7;exitX=0.684;exitY=0.043;exitDx=0;exitDy=0;exitPerimeter=0;entryX=1.3;entryY=0.933;entryDx=0;entryDy=0;entryPerimeter=0;" edge="1" parent="1" source="kcvAr1OlvpWyKCQqvLKW-157" target="kcvAr1OlvpWyKCQqvLKW-142">
          <mxGeometry width="50" height="50" relative="1" as="geometry">
            <mxPoint x="170" y="640" as="sourcePoint" />
            <mxPoint x="220" y="590" as="targetPoint" />
          </mxGeometry>
        </mxCell>
        <mxCell id="kcvAr1OlvpWyKCQqvLKW-163" value="" style="shape=requiredInterface;html=1;fontSize=11;align=center;fillColor=none;points=[];aspect=fixed;resizable=0;verticalAlign=bottom;labelPosition=center;verticalLabelPosition=top;flipH=1;strokeColor=#0F8B8D;fontColor=#143642;" vertex="1" parent="1">
          <mxGeometry x="730" y="460" width="5" height="10" as="geometry" />
        </mxCell>
        <mxCell id="kcvAr1OlvpWyKCQqvLKW-162" value="" style="endArrow=none;html=1;rounded=0;align=center;verticalAlign=top;endFill=0;labelBackgroundColor=none;endSize=2;strokeColor=#A8201A;fontColor=#143642;fillColor=#FAE5C7;" edge="1" source="kcvAr1OlvpWyKCQqvLKW-161" target="kcvAr1OlvpWyKCQqvLKW-163" parent="1">
          <mxGeometry relative="1" as="geometry" />
        </mxCell>
        <mxCell id="kcvAr1OlvpWyKCQqvLKW-165" value="" style="endArrow=none;html=1;rounded=0;align=center;verticalAlign=top;endFill=0;labelBackgroundColor=none;endSize=2;strokeColor=#A8201A;fontColor=#143642;fillColor=#FAE5C7;" edge="1" source="kcvAr1OlvpWyKCQqvLKW-164" target="kcvAr1OlvpWyKCQqvLKW-166" parent="1">
          <mxGeometry relative="1" as="geometry" />
        </mxCell>
        <mxCell id="kcvAr1OlvpWyKCQqvLKW-166" value="" style="ellipse;html=1;fontSize=11;align=center;fillColor=none;points=[];aspect=fixed;resizable=0;verticalAlign=bottom;labelPosition=center;verticalLabelPosition=top;flipH=1;strokeColor=#0F8B8D;fontColor=#143642;" vertex="1" parent="1">
          <mxGeometry x="735" y="461" width="8" height="8" as="geometry" />
        </mxCell>
        <mxCell id="kcvAr1OlvpWyKCQqvLKW-173" value="&lt;div align=&quot;left&quot;&gt;1/ la gateway va emettre les messages (objets json d&#39;insertions)&lt;/div&gt;&lt;div align=&quot;left&quot;&gt;2/ le service Offres peut consommer les messages sn propre rythme&lt;/div&gt;&lt;div align=&quot;left&quot;&gt;&lt;br&gt;&lt;/div&gt;" style="shape=note2;boundedLbl=1;whiteSpace=wrap;html=1;size=25;verticalAlign=top;align=left;fillColor=#1ba1e2;fontColor=#ffffff;strokeColor=#006EAF;labelBackgroundColor=none;" vertex="1" parent="1">
          <mxGeometry x="780" y="120" width="430" height="70" as="geometry" />
        </mxCell>
        <mxCell id="kcvAr1OlvpWyKCQqvLKW-174" value="" style="endArrow=none;dashed=1;html=1;dashPattern=1 3;strokeWidth=2;rounded=0;strokeColor=#A8201A;fontColor=#143642;fillColor=#FAE5C7;exitX=0.601;exitY=0.133;exitDx=0;exitDy=0;exitPerimeter=0;" edge="1" parent="1" source="kcvAr1OlvpWyKCQqvLKW-172" target="kcvAr1OlvpWyKCQqvLKW-173">
          <mxGeometry width="50" height="50" relative="1" as="geometry">
            <mxPoint x="820" y="440" as="sourcePoint" />
            <mxPoint x="870" y="390" as="targetPoint" />
          </mxGeometry>
        </mxCell>
      </root>
    </mxGraphModel>
  </diagram>
</mxfile>
